<svg height="512pt" viewBox="0 -144 512.00059 512" width="512pt" xmlns="http://www.w3.org/2000/svg"><path d="m431.339844 64.703125c.09375-.445313 18.796875-64.703125-56.929688-64.703125-25.226562 0-58.242187 4.296875-89.8125 5.636719v218.820312l40.84375-.542969s96.289063-114.605468 105.898438-159.210937zm0 0" fill="#ff8c42"/><path d="m302.261719 125.46875v-72.003906c-79.253907-1.078125-158.636719-9.742188-236.21875-25.808594-29.691407-6.152344-58.742188 12.933594-64.890625 42.625-6.148438 29.691406 12.933594 58.742188 42.625 64.894531 86.960937 18.007813 176 27.449219 264.824218 28.140625-4.089843-11.875-6.339843-24.597656-6.339843-37.847656zm0 0" fill="#f54432"/><path d="m101.394531 72.128906v-37.710937c-11.820312-2.089844-23.605469-4.332031-35.347656-6.761719-15.199219-3.148438-30.21875.324219-42.097656 8.4375 5.65625 16.75 23.304687 38.90625 77.445312 36.035156zm0 0" fill="#f4e74d"/><path d="m510.847656 74.394531c-6.148437-29.691406-35.210937-48.773437-64.890625-42.625-61.710937 12.777344-83.523437 15.144531-146.539062 18.46875 0 0-24.105469 68.359375-10.832031 99.976563 6.023437 14.34375 53.425781 7.257812 55.191406 7.105468 53.296875-4.601562 72.152344-7.203124 124.441406-18.03125 29.695312-6.148437 48.777344-35.203124 42.628906-64.894531zm0 0" fill="#fb695b"/><path d="m411.308594 103.289062c9.664062-32.75.007812-64.664062.003906-64.6875-38.164062 6.992188-62.242188 9.019532-111.894531 11.636719 0 0-24.105469 68.359375-10.832031 99.976563 6.023437 14.34375 53.429687 7.257812 55.195312 7.105468 32.394531-2.796874 52.074219-4.855468 74.261719-8.472656-11.066407-10.035156-12.367188-26.460937-6.734375-45.558594zm0 0" fill="#f54432"/><path d="m355.574219 85.132812c37.707031-22.101562 55.257812 3.25 83.210937-9.925781 27.953125-13.179687 7.171875-43.4375 7.171875-43.4375-39.332031 8.144531-62.464843 12.058594-90.382812 14.6875zm0 0" fill="#f9ee80"/><path d="m415.40625 78.960938c1.273438-22.609376-4.09375-40.359376-4.09375-40.359376-20.605469 3.773438-37.109375 6.101563-55.738281 7.855469v38.675781c26.289062-15.410156 42.78125-7.753906 59.832031-6.171874zm0 0" fill="#eedb00"/><path d="m399.996094 151.523438c-39.695313 0-33.207032-42.214844-23.601563-86.820313.097657-.445313 18.800781-64.703125-56.929687-64.703125-29.859375 0-70.644532 6.039062-107.011719 6.039062-29.214844 0-61.332031-2.039062-88.210937-4.332031-32.5-2.773437-60.429688 22.804688-60.429688 55.421875v72.175782c0 52.601562 42.648438 95.238281 95.253906 95.214843 79.816406-.039062 180.808594-.171875 180.808594-.605469 89.308594 0 104.964844-50.261718 106.960938-80.296874-18.089844 3.550781-46.839844 7.90625-46.839844 7.90625zm0 0" fill="#ffc7a4"/><path d="m143.414062 96.125c-.664062-22.9375 12.417969-43.875 33.136719-53.742188 25.964844-12.367187 47.914063-36.542968 47.914063-36.542968-4.042969.128906-8.054688.199218-12.011719.199218-29.214844 0-61.328125-2.039062-88.210937-4.332031-32.5-2.773437-60.429688 22.804688-60.429688 55.421875v72.175782c0 52.601562 42.648438 95.238281 95.253906 95.214843 14.171875-.007812 29.011719-.019531 43.835938-.03125-47.054688-34.386719-58.355469-89.226562-59.488282-128.363281zm0 0" fill="#ffaa75"/><path d="m158.785156 125.074219c0-9.351563-9.519531-16.933594-21.265625-16.933594-11.742187 0-21.261719 7.582031-21.261719 16.933594 0 9.351562 9.519532 16.933593 21.261719 16.933593 11.746094 0 21.265625-7.582031 21.265625-16.933593zm0 0" fill="#ff83b4"/><path d="m316.316406 125.074219c0-9.351563-9.519531-16.933594-21.265625-16.933594-11.742187 0-21.261719 7.582031-21.261719 16.933594 0 9.351562 9.519532 16.933593 21.261719 16.933593 11.746094 0 21.265625-7.582031 21.265625-16.933593zm0 0" fill="#ff83b4"/><g fill="#454545"><path d="m221.5625 106.773438c-1.730469 2.542968-4.253906 2.847656-5.277344 2.847656-1.023437 0-3.589844-.277344-5.277344-2.847656-2.34375-3.566407-7.132812-4.558594-10.699218-2.214844s-4.558594 7.132812-2.214844 10.699218c4.035156 6.148438 10.835938 9.816407 18.191406 9.816407 7.355469 0 14.15625-3.667969 18.191406-9.816407 2.34375-3.566406 1.351563-8.355468-2.214843-10.699218-1.304688-.859375-7.089844-3.082032-10.699219 2.214844zm0 0"/><path d="m155.074219 110.394531c-.960938-.804687-1.921875-1.019531-2.460938-1.019531-.539062 0-1.570312.132812-2.457031 1.019531-3.019531 3.015625-7.914062 3.015625-10.925781 0-3.019531-3.015625-3.019531-7.910156-.003907-10.925781 3.578126-3.578125 8.332032-5.546875 13.386719-5.546875 5.058594 0 9.8125 1.972656 13.386719 5.546875 3.015625 3.015625 3.015625 7.910156 0 10.925781-1.507812 1.507813-6.050781 4.082031-10.925781 0zm0 0"/><path d="m282.417969 110.394531c-.960938-.804687-1.921875-1.019531-2.460938-1.019531-.539062 0-1.570312.132812-2.457031 1.019531-3.019531 3.015625-7.914062 3.015625-10.925781 0-3.019531-3.015625-3.019531-7.910156-.003907-10.925781 3.578126-3.578125 8.332032-5.546875 13.386719-5.546875 5.058594 0 9.8125 1.972656 13.386719 5.546875 3.015625 3.015625 3.015625 7.910156 0 10.925781-1.507812 1.507813-6.050781 4.082031-10.925781 0zm0 0"/></g></svg>